# AST/ASF file generated using VICON BodyLanguage
# -----------------------------------------------
:version 1.10
:name VICON
:units
  mass 1.0
  length 0.45
  angle deg
:documentation
   .ast/.asf automatically generated from VICON data using
   VICON BodyBuilder and BodyLanguage model FoxedUp or BRILLIANT.MOD
:root
   order TX TY TZ RX RY RZ
   axis XYZ
   position 0 0 0  
   orientation 0 0 0 
:bonedata
  begin
     id 1 
     name lhipjoint
     direction 0.54267 -0.795011 0.271047 
     length 2.39899 
     axis 0 0 0  XYZ
  end
  begin
     id 2 
     name lfemur
     direction 0.34202 -0.939693 0  
     length 7.49701  
     axis 0 0 20  XYZ
    dof rx ry rz
    limits (-160.0 20.0)
           (-70.0 70.0)
           (-60.0 70.0)
  end
  begin
     id 3 
     name ltibia
     direction 0.34202 -0.939693 0   
     length 8.1668   
     axis 0 0 20   XYZ
    dof rx
    limits (-10.0 170.0)
  end
  begin
     id 4 
     name lfoot
     direction 0.0736283 -0.202292 0.976554   
     length 2.13544   
     axis -90 7.62852e-016 20   XYZ
    dof rx rz
    limits (-45.0 90.0)
           (-70.0 20.0)
  end
  begin
     id 5 
     name ltoes
     direction 1.53557e-011 -4.22024e-011 1   
     length 1.07411   
     axis -90 7.62852e-016 20   XYZ
    dof rx
    limits (-90.0 20.0)
  end
  begin
     id 6 
     name rhipjoint
     direction -0.538061 -0.797813 0.272002   
     length 2.39057  
     axis 0 0 0  XYZ 
  end
  begin
     id 7 
     name rfemur
     direction -0.34202 -0.939693 0   
     length 7.50152   
     axis 0 0 -20   XYZ
    dof rx ry rz
    limits (-160.0 20.0)
           (-70.0 70.0)
           (-70.0 60.0)
  end
  begin
     id 8 
     name rtibia
     direction -0.34202 -0.939693 0   
     length 8.05793   
     axis 0 0 -20   XYZ
    dof rx
    limits (-10.0 170.0)
 end
 begin
     id 9 
     name rfoot
     direction -0.0765195 -0.210236 0.974652   
     length 2.28698  
     axis -90 -7.62852e-016 -20   XYZ
    dof rx rz
    limits (-45.0 90.0)
           (-20.0 70.0)
  end
  begin
     id 10 
     name rtoes
     direction -1.53542e-011 -4.21847e-011 1   
     length 1.14762   
     axis -90 -7.62852e-016 -20   XYZ
    dof rx
    limits (-90.0 20.0)
  end
  begin
     id 11 
     name lowerback
     direction -0.0217239 0.996592 -0.0795765   
     length 2.08176   
     axis 0 0 0   XYZ
    dof rx ry rz
    limits (-20.0 45.0)
           (-30.0 30.0)
           (-30.0 30.0)
  end
  begin
     id 12 
     name upperback
     direction -0.00563773 0.999651 -0.0258155   
     length 2.08898   
     axis 0 0 0   XYZ
    dof rx ry rz
    limits (-20.0 45.0)
           (-30.0 30.0)
           (-30.0 30.0)
  end
  begin
     id 13 
     name thorax
     direction 0.0032706 0.999923 0.0119599   
     length 2.0968   
     axis 0 0 0   XYZ
    dof rx ry rz
    limits (-20.0 45.0)
           (-30.0 30.0)
           (-30.0 30.0)
  end
  begin
     id 14 
     name lowerneck
     direction -0.0285886 0.99568 0.0883427   
     length 1.81272   
     axis 0 0 0   XYZ
    dof rx ry rz
    limits (-20.0 45.0)
           (-30.0 30.0)
           (-30.0 30.0)
  end
  begin
     id 15 
     name upperneck
     direction 0.0807535 0.97985 -0.18268   
     length 1.82518   
     axis 0 0 0   XYZ
    dof rx ry rz
    limits (-20.0 45.0)
           (-30.0 30.0)
           (-30.0 30.0)
  end
  begin
     id 16
     name head
     direction 0.0236605 0.997053 -0.0729767  
     length 1.84443  
     axis 0 0 0   XYZ
    dof rx ry rz
    limits (-20.0 45.0)
           (-30.0 30.0)
           (-30.0 30.0)
  end
  begin
     id 17 
     name lclavicle
     direction 0.918986 0.39378 -0.0200683  
     length 3.27822  
     axis 0 0 0   XYZ
    dof ry rz
    limits (-20.0 10.0)
           (0.0 20.0)
  end
  begin
     id 18 
     name lhumerus
     direction 1 -4.4897e-011 2.09544e-027   
     length 5.5568   
     axis 180 -30 -90   XYZ
    dof rx ry rz
    limits (-60.0 90.0)
           (-90.0 90.0)
           (-90.0 90.0)
  end
  begin
     id 19
     name lradius
     direction 1 -4.48957e-011 -1.27696e-026   
     length 3.63979   
     axis 180 -30 -90   XYZ
    dof rx
    limits (-10.0 170.0)
  end
  begin
     id 20
     name lwrist
     direction 1 -4.49001e-011 -1.49001e-026   
     length 1.8199   
     axis 9.0955e-015 90 90   XYZ
    dof ry
    limits (-180.0 0.0)
 end
  begin
     id 21 
     name lhand
     direction 1 -4.48709e-011 -2.9758e-026   
     length 0.569419   
     axis 1.90115e-014 90 90   XYZ
    dof rx rz
    limits (-90.0 90.0)
           (-45.0 45.0)
  end
  begin
     id 22 
     name lfingers
     direction 1 -4.49175e-011 -5.96505e-026   
     length 0.45908   
     axis 3.80223e-014 90 90   XYZ
    dof rx
    limits (0.0 90.0)
  end
  begin
     id 23
     name lthumb
     direction 0.707107 -6.34864e-011 0.707107   
     length 0.65915   
     axis -90 45 -3.84942e-014   XYZ
    dof rx rz
    limits (-45.0 45.0)
           (-45.0 45.0)
  end
  begin
     id 24 
     name rclavicle
     direction -0.911913 0.396426 -0.106115   
     length 3.46301  
     axis 0 0 0   XYZ 
    dof ry rz
    limits (-10.0 20.0)
           (-20.0 0.0)
  end
  begin
     id 25 
     name rhumerus
     direction -1 -4.48965e-011 7.78516e-028  
     length 5.34339   
     axis 180 30 90   XYZ
    dof rx ry rz
    limits (-90.0 60.0)
           (-90.0 90.0)
           (-90.0 90.0)
  end
  begin
     id 26 
     name rradius
     direction -1 -4.48948e-011 -5.79823e-027   
     length 3.65101   
     axis 180 30 90   XYZ
    dof rx
    limits (-10.0 170.0)
  end
  begin
     id 27 
     name rwrist
     direction -1 -4.48995e-011 -1.48996e-026   
     length 1.8255   
     axis 9.0955e-015 -90 -90   XYZ
    dof ry
    limits (-180.0 0.0)
  end
  begin
     id 28
     name rhand
     direction -1 -4.48957e-011 -2.97937e-026   
     length 0.694249   
     axis 1.90115e-014 -90 -90   XYZ
    dof rx rz
    limits (-90.0 90.0)
           (-45.0 45.0)
  end
  begin
     id 29
     name rfingers
     direction -1 -4.4898e-011 -5.95943e-026   
     length 0.559721   
     axis 3.80223e-014 -90 -90   XYZ
    dof rx
    limits (0.0 90.0)
  end
  begin
     id 30
     name rthumb
     direction -0.707107 -6.34969e-011 0.707107   
     length 0.803651   
     axis -90 -45 3.84942e-014   XYZ
    dof rx rz
    limits (-45.0 45.0)
           (-45.0 45.0)
  end
:hierarchy
  begin
    root lhipjoint rhipjoint lowerback
    lhipjoint lfemur
    lfemur ltibia
    ltibia lfoot
    lfoot ltoes
    rhipjoint rfemur
    rfemur rtibia
    rtibia rfoot
    rfoot rtoes
    lowerback upperback
    upperback thorax
    thorax lowerneck lclavicle rclavicle
    lowerneck upperneck
    upperneck head
    lclavicle lhumerus
    lhumerus lradius
    lradius lwrist
    lwrist lhand lthumb
    lhand lfingers
    rclavicle rhumerus
    rhumerus rradius
    rradius rwrist
    rwrist rhand rthumb
    rhand rfingers
  end

#!OML:ASF H:\Terrain\Walking\May29\JustinRory\rory.ASF
:FULLY-SPECIFIED
:DEGREES
978
root 9.2802 18.2649 -12.766 -1.98538 45.5635 3.50068
lowerback -3.50798 4.67727 6.16725
upperback -0.287774 5.95579 3.30333
thorax 1.93655 3.01798 0.29317
lowerneck 3.35554 -4.81233 -4.3283
upperneck -1.53393 -6.56754 1.64182
head -0.834422 -3.27858 1.33269
rclavicle 1.17283e-014 6.36111e-015
rhumerus 40.7086 16.4454 -83.107
rradius 49.5929
rwrist -3.37197
rhand -29.6393 47.037
rfingers 7.12502
rthumb -2.96914 17.078
lclavicle 1.17283e-014 6.36111e-015
lhumerus 43.988 8.37095 14.8682
lradius 66.2469
lwrist -17.6692
lhand -23.6762 10.8348
lfingers 7.12502
lthumb 2.79003 40.7963
rfemur 4.81807 -7.68984 15.7965
rtibia 18.1581
rfoot -23.7057 -33.9883
rtoes 30.4853
lfemur -7.26439 -20.9559 -15.07
ltibia 14.2201
lfoot 2.86817 -19.9545
ltoes 8.00807
979
root 9.2807 18.2656 -12.7646 -2.14585 45.8133 3.33834
lowerback -3.40122 4.64046 6.49801
upperback -0.338222 5.90736 3.46868
thorax 1.83809 2.99435 0.267607
lowerneck 3.22172 -4.43646 -4.27417
upperneck -1.76186 -6.06877 1.19437
head -0.913134 -3.01998 1.17909
rclavicle -2.90226e-014 -6.36111e-015
rhumerus 40.9741 16.5462 -83.1739
rradius 49.0144
rwrist -2.7249
rhand -30.6722 46.5495
rfingers 7.12502
rthumb -3.96658 16.6067
lclavicle -2.90226e-014 -6.36111e-015
lhumerus 44.4163 8.92332 14.7591
lradius 64.854
lwrist -17.9581
lhand -22.3749 9.53381
lfingers 7.12502
lthumb 4.04674 39.4751
rfemur 5.01557 -7.86429 15.9191
rtibia 17.9537
rfoot -23.5571 -34.1162
rtoes 30.1232
lfemur -7.25001 -21.0521 -14.9662
ltibia 14.2134
lfoot 2.90009 -20.1163
ltoes 7.5563
980
root 9.28126 18.265 -12.7629 -2.30985 45.9331 3.24107
lowerback -3.50104 4.7254 6.67563
upperback -0.213426 5.99494 3.60284
thorax 2.03083 3.04508 0.331461
lowerneck 3.20431 -4.25613 -3.95052
upperneck -2.36023 -5.82656 0.835714
head -1.12368 -2.88786 1.02244
rclavicle -1.33583e-013 9.54166e-015
rhumerus 41.3525 16.3854 -83.3234
rradius 48.4987
rwrist -1.903
rhand -31.4786 45.5635
rfingers 7.12502
rthumb -4.74531 15.6366
lclavicle -1.33583e-013 9.54166e-015
lhumerus 45.0596 9.65501 14.9149
lradius 63.7059
lwrist -18.2194
lhand -13.4874 9.45526
lfingers 7.12502
lthumb 12.6233 39.0538
rfemur 5.1977 -7.81519 16.0188
rtibia 17.8473
rfoot -23.8418 -34.2135
rtoes 30.5493
lfemur -7.14427 -21.0981 -14.9364
ltibia 14.2127
lfoot 2.85064 -20.1878
ltoes 7.27274
981
root 9.2802 18.2659 -12.7612 -2.24503 46.0103 3.42404
lowerback -3.54028 4.73072 6.60837
upperback -0.156203 5.99673 3.67354
thorax 2.09773 3.04766 0.447194
lowerneck 3.36182 -3.99514 -3.45738
upperneck -3.06035 -5.48027 0.44835
head -1.40397 -2.70324 0.833594
rclavicle -1.19271e-015 9.54166e-015
rhumerus 41.6859 16.3984 -83.6136
rradius 48.1184
rwrist -2.0521
rhand -30.9473 44.855
rfingers 7.12502
rthumb -4.23225 14.9173
lclavicle -1.19271e-015 9.54166e-015
lhumerus 45.5006 10.2954 14.8633
lradius 62.6148
lwrist -18.2912
lhand -20.1108 6.63688
lfingers 7.12502
lthumb 6.23281 36.5252
rfemur 5.27156 -7.64823 15.9331
rtibia 17.8909
rfoot -24.2827 -34.3636
rtoes 31.2741
lfemur -7.05252 -21.0283 -15.1135
ltibia 14.1641
lfoot 3.04534 -20.2244
ltoes 7.80559
982
root 9.28229 18.2669 -12.7621 -1.85488 46.1129 3.93951
lowerback -3.5611 4.64158 6.34712
upperback -0.132507 5.88511 3.72852
thorax 2.09713 2.99035 0.639933
lowerneck 3.1745 -3.68535 -3.22386
upperneck -3.37267 -5.06541 0.0601358
head -1.49436 -2.48655 0.667494
rclavicle 9.74045e-015 3.18055e-015
rhumerus 41.9863 16.8435 -83.6116
rradius 47.9136
rwrist -2.50971
rhand -30.9582 44.6845
rfingers 7.12502
rthumb -4.24281 14.747
lclavicle 9.74045e-015 3.18055e-015
lhumerus 45.6083 11.0258 14.7654
lradius 61.5684
lwrist -18.409
lhand -22.1016 4.77946
lfingers 7.12502
lthumb 4.3107 34.7156
rfemur 5.22276 -7.70122 15.5338
rtibia 17.9982
rfoot -24.0073 -34.5636
rtoes 30.9184
lfemur -7.00542 -21.0386 -15.5271
ltibia 14.0205
lfoot 3.22911 -20.2027
ltoes 7.9464
